<?xml version="1.0" encoding="utf-8"?>
<!-- Generator: Adobe Illustrator 16.0.0, SVG Export Plug-In . SVG Version: 6.00 Build 0)  -->
<!DOCTYPE svg PUBLIC "-//W3C//DTD SVG 1.1//EN" "http://www.w3.org/Graphics/SVG/1.1/DTD/svg11.dtd">
<svg version="1.1" id="Layer_1" xmlns="http://www.w3.org/2000/svg" xmlns:xlink="http://www.w3.org/1999/xlink" x="0px" y="0px"
	 width="492.15px" height="43.941px" viewBox="0 0 492.15 43.941" enable-background="new 0 0 492.15 43.941" xml:space="preserve">
<g id="Layer_2" display="none">
	
		<image display="inline" overflow="visible" enable-background="new    " width="1671" height="216" xlink:href="C8691DE.png"  transform="matrix(0.3099 0 0 0.3099 -11.1118 -11.1199)">
	</image>
</g>
<g id="Layer_1_1_">
	<g>
		<path fill="#FFFFFF" d="M22.907,0.961L26.906,34.8L52.085,0.961h10.589v1.146c-2.303,0.146-3.658,0.29-4.063,0.435
			c-0.704,0.269-1.349,0.806-1.936,1.61c-0.587,0.807-1.221,2.355-1.903,4.648l-8.03,26.65c-0.47,1.549-0.704,2.769-0.704,3.656
			c0,0.807,0.288,1.415,0.864,1.828c0.811,0.601,2.09,0.899,3.839,0.899h0.768l-0.288,1.146H32.953l0.32-1.146h0.864
			c1.621,0,2.858-0.228,3.711-0.683c0.661-0.331,1.253-0.956,1.776-1.875c0.522-0.919,1.252-2.959,2.191-6.119L48.982,8.8
			L23.675,42.981h-1.28l-4.063-34.18l-7.742,26c-0.662,2.211-0.992,3.698-0.992,4.462c0,0.765,0.288,1.348,0.864,1.751
			c0.576,0.403,1.973,0.677,4.191,0.821l-0.352,1.146H0l0.352-1.146h0.864c2.111,0,3.636-0.517,4.575-1.549
			c0.683-0.744,1.397-2.355,2.144-4.834l9.438-31.33c-0.704-0.702-1.375-1.179-2.015-1.425c-0.64-0.248-1.824-0.444-3.551-0.59
			l0.32-1.146L22.907,0.961L22.907,0.961z"/>
		<path fill="#FFFFFF" d="M87.469,14.937L81.23,35.948l-0.704,2.819c-0.064,0.27-0.096,0.496-0.096,0.683
			c0,0.331,0.106,0.619,0.32,0.867c0.17,0.187,0.384,0.279,0.64,0.279c0.277,0,0.64-0.165,1.088-0.496
			c0.832-0.599,1.94-1.838,3.327-3.719l1.088,0.744c-1.472,2.148-2.986,3.786-4.543,4.912s-2.997,1.688-4.319,1.688
			c-0.917,0-1.605-0.222-2.064-0.666c-0.458-0.443-0.688-1.09-0.688-1.937c0-1.013,0.234-2.345,0.704-3.998l0.672-2.324
			c-2.794,3.533-5.364,6.002-7.71,7.406c-1.685,1.012-3.338,1.519-4.959,1.519c-1.557,0-2.901-0.625-4.031-1.875
			c-1.131-1.25-1.696-2.97-1.696-5.16c0-3.284,1.018-6.75,3.055-10.396s4.623-6.564,7.758-8.754
			c2.453-1.735,4.767-2.604,6.943-2.604c1.301,0,2.383,0.331,3.247,0.992c0.864,0.662,1.52,1.756,1.968,3.285l1.152-3.533
			L87.469,14.937z M76.08,16.548c-1.365,0-2.815,0.62-4.351,1.859c-2.176,1.756-4.111,4.358-5.807,7.809
			c-1.696,3.451-2.543,6.57-2.543,9.359c0,1.404,0.362,2.515,1.087,3.331c0.725,0.815,1.557,1.224,2.496,1.224
			c2.325,0,4.852-1.663,7.583-4.989c3.647-4.42,5.471-8.956,5.471-13.604c0-1.755-0.352-3.026-1.056-3.813
			C78.255,16.941,77.295,16.548,76.08,16.548z"/>
		<path fill="#FFFFFF" d="M113.256,14.937l-1.952,9.515h-1.184c-0.107-2.769-0.715-4.782-1.824-6.043s-2.485-1.891-4.127-1.891
			c-1.323,0-2.373,0.353-3.151,1.055c-0.779,0.702-1.168,1.549-1.168,2.54c0,0.683,0.154,1.333,0.464,1.952
			c0.309,0.62,0.986,1.487,2.032,2.604c2.772,2.934,4.564,5.144,5.375,6.632c0.811,1.487,1.216,2.893,1.216,4.214
			c0,2.149-0.923,4.055-2.767,5.717c-1.845,1.664-4.175,2.495-6.991,2.495c-1.536,0-3.306-0.352-5.311-1.054
			c-0.704-0.248-1.248-0.372-1.632-0.372c-0.96,0-1.685,0.476-2.176,1.425h-1.184l1.952-10.04h1.184
			c0.128,3.141,0.8,5.361,2.016,6.662c1.216,1.302,2.879,1.953,4.991,1.953c1.621,0,2.906-0.439,3.855-1.317
			s1.424-1.958,1.424-3.238c0-0.826-0.171-1.591-0.512-2.293c-0.597-1.24-1.851-2.954-3.759-5.145
			c-1.909-2.188-3.135-3.832-3.679-4.927c-0.543-1.095-0.815-2.189-0.815-3.285c0-2.004,0.751-3.698,2.255-5.083
			c1.503-1.384,3.439-2.076,5.807-2.076c0.683,0,1.301,0.052,1.855,0.155c0.299,0.062,0.997,0.294,2.096,0.697
			c1.098,0.402,1.829,0.604,2.191,0.604c0.917,0,1.685-0.484,2.304-1.457h1.215V14.937z"/>
		<path fill="#FFFFFF" d="M132.004,7.251l-2.496,8.429h5.023l-0.544,1.953h-4.991l-5.503,18.283
			c-0.598,1.963-0.896,3.232-0.896,3.812c0,0.353,0.085,0.62,0.256,0.807c0.17,0.186,0.373,0.278,0.608,0.278
			c0.533,0,1.237-0.36,2.112-1.084c0.512-0.413,1.652-1.684,3.423-3.812l1.056,0.774c-1.963,2.77-3.818,4.722-5.567,5.856
			c-1.195,0.785-2.399,1.178-3.615,1.178c-0.939,0-1.707-0.284-2.304-0.852c-0.597-0.568-0.896-1.296-0.896-2.186
			c0-1.115,0.341-2.819,1.024-5.112l5.343-17.942h-4.831l0.32-1.208c2.346-0.62,4.298-1.544,5.855-2.774
			c1.557-1.229,3.295-3.361,5.215-6.398h1.408V7.251z"/>
		<path fill="#FFFFFF" d="M140.994,31.299c-0.149,1.033-0.224,1.89-0.224,2.572c0,1.839,0.672,3.403,2.016,4.694
			c1.343,1.292,2.975,1.938,4.895,1.938c1.536,0,3.013-0.305,4.431-0.914s3.524-1.958,6.319-4.044l0.672,0.898
			c-5.055,4.855-9.875,7.282-14.461,7.282c-3.114,0-5.46-0.95-7.039-2.851s-2.368-3.998-2.368-6.291
			c0-3.078,0.981-6.229,2.943-9.452c1.962-3.223,4.426-5.729,7.391-7.515c2.964-1.787,6.015-2.682,9.15-2.682
			c2.261,0,3.935,0.445,5.023,1.333c1.088,0.89,1.632,1.942,1.632,3.161c0,1.715-0.704,3.357-2.112,4.927
			c-1.855,2.045-4.586,3.698-8.19,4.958C148.683,30.163,145.323,30.824,140.994,31.299z M141.218,29.781
			c3.156-0.352,5.727-0.95,7.71-1.798c2.624-1.136,4.591-2.495,5.903-4.074c1.312-1.58,1.967-3.083,1.967-4.51
			c0-0.867-0.283-1.569-0.848-2.106c-0.565-0.537-1.371-0.807-2.416-0.807c-2.176,0-4.484,1.121-6.927,3.362
			C144.166,22.09,142.37,25.401,141.218,29.781z"/>
		<path fill="#FFFFFF" d="M165.692,16.672l11.038-1.735l-4.607,15.062c3.732-6.178,7.124-10.495,10.174-12.953
			c1.728-1.405,3.135-2.107,4.223-2.107c0.704,0,1.258,0.202,1.664,0.604c0.405,0.402,0.608,0.986,0.608,1.751
			c0,1.363-0.363,2.665-1.088,3.904c-0.512,0.93-1.248,1.395-2.208,1.395c-0.491,0-0.912-0.155-1.264-0.465
			c-0.352-0.311-0.571-0.785-0.656-1.425c-0.043-0.394-0.139-0.651-0.288-0.775c-0.171-0.165-0.374-0.248-0.608-0.248
			c-0.363,0-0.704,0.083-1.024,0.248c-0.555,0.29-1.397,1.095-2.527,2.417c-1.771,2.025-3.69,4.648-5.759,7.871
			c-0.896,1.364-1.664,2.903-2.303,4.618c-0.896,2.354-1.408,3.771-1.536,4.245l-1.023,3.904h-4.895l5.918-19.243
			c0.683-2.231,1.024-3.822,1.024-4.772c0-0.372-0.16-0.682-0.48-0.93c-0.427-0.331-0.992-0.496-1.695-0.496
			c-0.448,0-1.27,0.093-2.464,0.278L165.692,16.672z"/>
		<path fill="#FFFFFF" d="M213.746,0.961h32.952l-3.551,11.156h-1.215c0.404-1.633,0.607-3.089,0.607-4.37
			c0-1.508-0.48-2.645-1.439-3.409c-0.727-0.578-2.592-0.868-5.6-0.868h-3.423l-8.574,28.943c-1.088,3.637-1.632,5.878-1.632,6.725
			c0,0.786,0.341,1.431,1.024,1.938c0.682,0.506,1.888,0.759,3.615,0.759h1.472l-0.384,1.146h-18.876l0.352-1.146h0.832
			c1.664,0,2.943-0.258,3.839-0.775c0.618-0.351,1.178-0.985,1.679-1.906c0.501-0.919,1.2-2.865,2.096-5.841l8.99-29.842h-2.591
			c-2.496,0-4.506,0.311-6.031,0.93c-1.525,0.62-2.757,1.52-3.695,2.696c-0.939,1.177-1.707,2.852-2.304,5.021h-1.184L213.746,0.961
			z"/>
		<path fill="#FFFFFF" d="M265.319,14.937l-6.238,21.011l-0.705,2.819c-0.063,0.27-0.096,0.496-0.096,0.683
			c0,0.331,0.107,0.619,0.32,0.867c0.17,0.187,0.385,0.279,0.641,0.279c0.275,0,0.639-0.165,1.088-0.496
			c0.83-0.599,1.939-1.838,3.326-3.719l1.088,0.744c-1.471,2.148-2.986,3.786-4.543,4.912s-2.996,1.688-4.318,1.688
			c-0.918,0-1.605-0.222-2.064-0.666c-0.459-0.443-0.688-1.09-0.688-1.937c0-1.013,0.234-2.345,0.703-3.998l0.672-2.324
			c-2.793,3.533-5.363,6.002-7.709,7.406c-1.686,1.012-3.34,1.519-4.959,1.519c-1.559,0-2.902-0.625-4.032-1.875
			c-1.131-1.25-1.696-2.97-1.696-5.16c0-3.284,1.018-6.75,3.056-10.396c2.037-3.646,4.623-6.564,7.758-8.754
			c2.453-1.735,4.768-2.604,6.943-2.604c1.301,0,2.383,0.331,3.246,0.992c0.865,0.662,1.52,1.756,1.969,3.285l1.15-3.533
			L265.319,14.937z M253.929,16.548c-1.365,0-2.813,0.62-4.35,1.859c-2.176,1.756-4.111,4.358-5.807,7.809
			c-1.697,3.451-2.545,6.57-2.545,9.359c0,1.404,0.363,2.515,1.088,3.331c0.725,0.815,1.557,1.224,2.496,1.224
			c2.324,0,4.852-1.663,7.583-4.989c3.647-4.42,5.471-8.956,5.471-13.604c0-1.755-0.352-3.026-1.055-3.813
			C256.104,16.941,255.146,16.548,253.929,16.548z"/>
		<path fill="#FFFFFF" d="M278.692,14.937c1.045,1.075,1.834,2.149,2.367,3.224c0.385,0.743,1.014,2.695,1.887,5.855l2.816-4.09
			c0.746-0.992,1.652-1.937,2.719-2.835s2.006-1.513,2.815-1.844c0.513-0.207,1.077-0.311,1.695-0.311
			c0.917,0,1.647,0.238,2.19,0.713c0.545,0.477,0.816,1.055,0.816,1.735c0,0.785-0.16,1.322-0.48,1.611
			c-0.597,0.517-1.278,0.774-2.047,0.774c-0.447,0-0.928-0.093-1.439-0.278c-1.002-0.331-1.674-0.496-2.016-0.496
			c-0.513,0-1.119,0.29-1.824,0.868c-1.321,1.074-2.899,3.15-4.733,6.229l2.623,10.66c0.405,1.632,0.746,2.607,1.022,2.928
			c0.277,0.32,0.556,0.48,0.832,0.48c0.448,0,0.972-0.237,1.567-0.713c1.173-0.95,2.177-2.189,3.008-3.72l1.12,0.559
			c-1.344,2.438-3.051,4.462-5.119,6.073c-1.174,0.909-2.164,1.363-2.976,1.363c-1.194,0-2.144-0.65-2.849-1.952
			c-0.446-0.806-1.375-4.275-2.783-10.412c-3.326,5.6-5.993,9.204-7.997,10.815c-1.302,1.033-2.56,1.549-3.775,1.549
			c-0.853,0-1.632-0.3-2.336-0.897c-0.512-0.454-0.769-1.064-0.769-1.829c0-0.683,0.236-1.25,0.705-1.704
			c0.47-0.454,1.045-0.683,1.728-0.683s1.408,0.331,2.177,0.992c0.553,0.477,0.979,0.713,1.278,0.713
			c0.256,0,0.587-0.165,0.992-0.496c1.002-0.784,2.366-2.479,4.095-5.083c1.729-2.604,2.857-4.481,3.393-5.64
			c-1.324-5.021-2.037-7.675-2.145-7.964c-0.491-1.343-1.131-2.293-1.92-2.851c-0.789-0.559-1.951-0.837-3.487-0.837
			c-0.489,0-1.056,0.021-1.694,0.063v-1.116L278.692,14.937z"/>
		<path fill="#FFFFFF" d="M358.899,0l-3.231,13.604h-1.152l-0.128-3.409c-0.105-1.238-0.352-2.344-0.734-3.315
			c-0.385-0.971-0.96-1.813-1.729-2.525c-0.769-0.713-1.739-1.271-2.912-1.673s-2.474-0.604-3.901-0.604
			c-3.818,0-7.156,1.013-10.016,3.037c-3.646,2.583-6.505,6.229-8.573,10.938c-1.706,3.884-2.56,7.82-2.56,11.807
			c0,4.07,1.227,7.319,3.679,9.746c2.452,2.429,5.643,3.642,9.566,3.642c2.964,0,5.604-0.641,7.918-1.921
			c2.313-1.281,4.463-3.254,6.446-5.919h1.504c-2.347,3.615-4.948,6.274-7.808,7.979c-2.857,1.704-6.28,2.556-10.27,2.556
			c-3.541,0-6.676-0.718-9.406-2.152c-2.729-1.437-4.81-3.456-6.237-6.06c-1.429-2.603-2.145-5.401-2.145-8.397
			c0-4.586,1.27-9.049,3.808-13.388c2.537-4.338,6.021-7.746,10.445-10.226c4.425-2.479,8.89-3.72,13.39-3.72
			c2.112,0,4.479,0.485,7.104,1.457c1.152,0.414,1.984,0.62,2.496,0.62s0.96-0.104,1.344-0.311S356.82,0.972,357.716,0H358.899z"/>
		<path fill="#FFFFFF" d="M364.306,31.299c-0.148,1.033-0.225,1.89-0.225,2.572c0,1.839,0.672,3.403,2.016,4.694
			c1.345,1.292,2.977,1.938,4.896,1.938c1.535,0,3.012-0.305,4.431-0.914c1.418-0.609,3.524-1.958,6.318-4.044l0.672,0.898
			c-5.055,4.855-9.875,7.282-14.461,7.282c-3.114,0-5.46-0.95-7.038-2.851c-1.579-1.9-2.367-3.998-2.367-6.291
			c0-3.078,0.98-6.229,2.943-9.452c1.962-3.223,4.425-5.729,7.39-7.515c2.965-1.787,6.016-2.682,9.15-2.682
			c2.261,0,3.936,0.445,5.022,1.333c1.087,0.89,1.631,1.942,1.631,3.161c0,1.715-0.702,3.357-2.11,4.927
			c-1.855,2.045-4.586,3.698-8.19,4.958C371.994,30.163,368.635,30.824,364.306,31.299z M364.529,29.781
			c3.155-0.352,5.727-0.95,7.71-1.798c2.624-1.136,4.592-2.495,5.902-4.074c1.313-1.58,1.969-3.083,1.969-4.51
			c0-0.867-0.283-1.569-0.85-2.106c-0.565-0.537-1.37-0.807-2.415-0.807c-2.176,0-4.483,1.121-6.927,3.362
			C367.478,22.09,365.681,25.401,364.529,29.781z"/>
		<path fill="#FFFFFF" d="M400.042,14.937l-4.255,14.101c3.988-5.765,7.043-9.556,9.166-11.373c2.122-1.817,4.164-2.728,6.126-2.728
			c1.065,0,1.946,0.341,2.64,1.023c0.693,0.682,1.04,1.57,1.04,2.665c0,1.239-0.31,2.893-0.928,4.958l-3.903,13.046
			c-0.447,1.508-0.672,2.428-0.672,2.758c0,0.29,0.085,0.532,0.256,0.729s0.354,0.294,0.544,0.294c0.257,0,0.565-0.135,0.929-0.403
			c1.131-0.868,2.367-2.189,3.711-3.966l0.992,0.589c-1.983,2.748-3.86,4.71-5.632,5.888c-1.236,0.807-2.347,1.208-3.326,1.208
			c-0.789,0-1.42-0.231-1.889-0.697c-0.47-0.465-0.704-1.089-0.704-1.875c0-0.991,0.362-2.695,1.088-5.112l3.711-12.458
			c0.471-1.549,0.704-2.758,0.704-3.625c0-0.413-0.139-0.749-0.416-1.007c-0.276-0.259-0.617-0.388-1.022-0.388
			c-0.598,0-1.313,0.248-2.145,0.744c-1.578,0.93-3.221,2.463-4.927,4.603c-1.707,2.138-3.509,4.871-5.407,8.196
			c-1.003,1.756-1.834,3.678-2.494,5.765l-1.601,5.112h-4.799l5.822-19.398c0.683-2.334,1.023-3.739,1.023-4.214
			c0-0.454-0.188-0.854-0.561-1.193s-0.837-0.511-1.393-0.511c-0.256,0-0.704,0.042-1.344,0.124l-1.216,0.186l-0.191-1.116
			L400.042,14.937z"/>
		<path fill="#FFFFFF" d="M435.362,7.251l-2.496,8.429h5.022l-0.544,1.953h-4.991l-5.503,18.283
			c-0.597,1.963-0.896,3.232-0.896,3.812c0,0.353,0.085,0.62,0.256,0.807c0.171,0.186,0.373,0.278,0.608,0.278
			c0.531,0,1.235-0.36,2.11-1.084c0.513-0.413,1.652-1.684,3.424-3.812l1.056,0.774c-1.962,2.77-3.817,4.722-5.566,5.856
			c-1.193,0.785-2.398,1.178-3.614,1.178c-0.938,0-1.707-0.284-2.305-0.852c-0.597-0.568-0.896-1.296-0.896-2.186
			c0-1.115,0.341-2.819,1.022-5.112l5.344-17.942h-4.831l0.319-1.208c2.347-0.62,4.298-1.544,5.854-2.774
			c1.557-1.229,3.296-3.361,5.215-6.398h1.41V7.251z"/>
		<path fill="#FFFFFF" d="M444.353,31.299c-0.148,1.033-0.225,1.89-0.225,2.572c0,1.839,0.672,3.403,2.016,4.694
			c1.345,1.292,2.977,1.938,4.896,1.938c1.535,0,3.012-0.305,4.431-0.914c1.418-0.609,3.524-1.958,6.318-4.044l0.672,0.898
			c-5.055,4.855-9.875,7.282-14.461,7.282c-3.114,0-5.46-0.95-7.038-2.851c-1.579-1.9-2.367-3.998-2.367-6.291
			c0-3.078,0.98-6.229,2.943-9.452c1.962-3.223,4.425-5.729,7.39-7.515c2.965-1.787,6.017-2.682,9.15-2.682
			c2.261,0,3.936,0.445,5.022,1.333c1.087,0.89,1.632,1.942,1.632,3.161c0,1.715-0.703,3.357-2.111,4.927
			c-1.855,2.045-4.586,3.698-8.19,4.958C452.041,30.163,448.682,30.824,444.353,31.299z M444.576,29.781
			c3.156-0.352,5.727-0.95,7.71-1.798c2.624-1.136,4.592-2.495,5.903-4.074c1.312-1.58,1.968-3.083,1.968-4.51
			c0-0.867-0.283-1.569-0.85-2.106c-0.565-0.537-1.37-0.807-2.415-0.807c-2.176,0-4.483,1.121-6.927,3.362
			C447.524,22.09,445.728,25.401,444.576,29.781z"/>
		<path fill="#FFFFFF" d="M469.051,16.672l11.038-1.735l-4.606,15.062c3.731-6.178,7.124-10.495,10.174-12.953
			c1.728-1.405,3.136-2.107,4.224-2.107c0.704,0,1.258,0.202,1.663,0.604c0.405,0.401,0.608,0.986,0.608,1.751
			c0,1.363-0.363,2.665-1.089,3.904c-0.512,0.93-1.247,1.395-2.207,1.395c-0.49,0-0.911-0.155-1.265-0.465
			c-0.352-0.311-0.57-0.785-0.655-1.425c-0.043-0.394-0.14-0.651-0.287-0.775c-0.172-0.165-0.373-0.248-0.608-0.248
			c-0.362,0-0.703,0.083-1.023,0.248c-0.555,0.29-1.396,1.095-2.526,2.417c-1.771,2.025-3.69,4.648-5.76,7.871
			c-0.896,1.364-1.663,2.903-2.304,4.618c-0.896,2.354-1.407,3.771-1.535,4.245l-1.023,3.904h-4.896l5.919-19.243
			c0.683-2.231,1.023-3.822,1.023-4.772c0-0.372-0.16-0.682-0.479-0.93c-0.427-0.331-0.991-0.496-1.695-0.496
			c-0.447,0-1.27,0.093-2.463,0.278L469.051,16.672z"/>
	</g>
</g>
</svg>
